<svg xmlns="http://www.w3.org/2000/svg" viewBox="0 0 429 429"><defs><style>.cls-1{fill:none;stroke:#4874b9;stroke-miterlimit:10;stroke-width:3px}</style></defs><g id="Group_1" data-name="Group 1" transform="translate(-1062.5 -262.5)"><path id="Stroke_1" data-name="Stroke 1" class="cls-1" d="M426 213c0 117.638-95.374 213-213 213S0 330.638 0 213 95.372 0 213 0s213 95.362 213 213z" transform="translate(1064 264)"/><path id="Stroke_3" data-name="Stroke 3" class="cls-1" d="M354 177A177 177 0 1 1 177 0a177 177 0 0 1 177 177z" transform="translate(1099 299)"/><path id="Stroke_5" data-name="Stroke 5" class="cls-1" d="M284 142A142 142 0 1 1 142 0a142 142 0 0 1 142 142z" transform="translate(1135 335)"/><path id="Stroke_7" data-name="Stroke 7" class="cls-1" d="M217 108.5A108.5 108.5 0 1 1 108.5 0 108.5 108.5 0 0 1 217 108.5z" transform="translate(1167 367)"/><path id="Stroke_9" data-name="Stroke 9" class="cls-1" d="M149 74.5A74.5 74.5 0 1 1 74.5 0 74.5 74.5 0 0 1 149 74.5z" transform="translate(1201 401)"/><path id="Stroke_11" data-name="Stroke 11" class="cls-1" d="M84 42A42 42 0 1 1 42 0a42 42 0 0 1 42 42z" transform="translate(1234 434)"/><path id="Stroke_13" data-name="Stroke 13" class="cls-1" d="M23 11.5A11.5 11.5 0 1 1 11.5 0 11.5 11.5 0 0 1 23 11.5z" transform="translate(1264 464)"/></g></svg>