<svg id="Layer_1" xmlns="http://www.w3.org/2000/svg" viewBox="0 0 255 246"><style>.st1{fill:#d0d2d3}</style><g id="SHAPE" opacity=".203"><path id="Fill_3" class="st1" d="M73 25.5L61.5 37 50 25.5 61.5 14 73 25.5z"/><path id="Fill_4" class="st1" d="M46 52.5L34.5 64 23 52.5 34.5 41 46 52.5z"/><path class="st1" d="M16 78.5L4.5 90 0 85.5v-14L4.5 67zM45.5 7l-7 7-7-7z"/><path id="Fill_10" class="st1" d="M23 29.5L11.5 41 0 29.5 11.5 18 23 29.5z"/><path id="Fill_14" class="st1" d="M123 18.5L111.5 30 100 18.5 111.5 7 123 18.5z"/><path id="Fill_15" class="st1" d="M95 46.5L83.5 58 72 46.5 83.5 35 95 46.5z"/><path id="Fill_16" class="st1" d="M67 74.5L55.5 86 44 74.5 55.5 63 67 74.5z"/><path id="Fill_17" class="st1" d="M39 102.5L27.5 114 16 102.5 27.5 91 39 102.5z"/><path class="st1" d="M11 129.5l-11 11v-22z"/><path transform="rotate(-45.001 159.5 11.502)" class="st1" d="M151.4 3.4h16.3v16.3h-16.3z"/><path id="Fill_20" class="st1" d="M143 39.5L131.5 51 120 39.5 131.5 28 143 39.5z"/><path id="Fill_21" class="st1" d="M115 66.5L103.5 78 92 66.5 103.5 55 115 66.5z"/><path id="Fill_22" class="st1" d="M87 94.5L75.5 106 64 94.5 75.5 83 87 94.5z"/><path id="Fill_23" class="st1" d="M60 122.5L48.5 134 37 122.5 48.5 111 60 122.5z"/><path id="Fill_24" class="st1" d="M32 150.5L20.5 162 9 150.5 20.5 139 32 150.5z"/><path id="Fill_25" class="st1" d="M191 32.5L179.5 44 168 32.5 179.5 21 191 32.5z"/><path id="Fill_26" class="st1" d="M163 59.5L151.5 71 140 59.5 151.5 48 163 59.5z"/><path id="Fill_27" class="st1" d="M136 87.5L124.5 99 113 87.5 124.5 76 136 87.5z"/><path id="Fill_28" class="st1" d="M108 115.5L96.5 127 85 115.5 96.5 104l11.5 11.5z"/><path id="Fill_29" class="st1" d="M80 142.5L68.5 154 57 142.5 68.5 131 80 142.5z"/><path id="Fill_30" class="st1" d="M53 170.5L41.5 182 30 170.5 41.5 159 53 170.5z"/><path id="Fill_31" class="st1" d="M213 53.5L201.5 65 190 53.5 201.5 42 213 53.5z"/><path id="Fill_32" class="st1" d="M185 81.5L173.5 93 162 81.5 173.5 70 185 81.5z"/><path id="Fill_33" class="st1" d="M158 109.5L146.5 121 135 109.5 146.5 98l11.5 11.5z"/><path id="Fill_34" class="st1" d="M130 137.5L118.5 149 107 137.5l11.5-11.5 11.5 11.5z"/><path id="Fill_35" class="st1" d="M102 164.5L90.5 176 79 164.5 90.5 153l11.5 11.5z"/><path id="Fill_36" class="st1" d="M74 192.5L62.5 204 51 192.5 62.5 181 74 192.5z"/><path id="Fill_37" class="st1" d="M234 74.5L222.5 86 211 74.5 222.5 63 234 74.5z"/><path id="Fill_38" class="st1" d="M206 102.5L194.5 114 183 102.5 194.5 91l11.5 11.5z"/><path id="Fill_39" class="st1" d="M178 129.5L166.5 141 155 129.5l11.5-11.5 11.5 11.5z"/><path id="Fill_40" class="st1" d="M150 157.5L138.5 169 127 157.5l11.5-11.5 11.5 11.5z"/><path id="Fill_41" class="st1" d="M123 185.5L111.5 197 100 185.5l11.5-11.5 11.5 11.5z"/><path id="Fill_42" class="st1" d="M95 213.5L83.5 225 72 213.5 83.5 202 95 213.5z"/><path id="Fill_43" class="st1" d="M232 95.5l11.5 11.5L255 95.5 243.5 84 232 95.5z"/><path id="Fill_44" class="st1" d="M229 125.5L217.5 137 206 125.5l11.5-11.5 11.5 11.5z"/><path id="Fill_45" class="st1" d="M201 151.5L189.5 163 178 151.5l11.5-11.5 11.5 11.5z"/><path id="Fill_46" class="st1" d="M172 180.5L160.5 192 149 180.5l11.5-11.5 11.5 11.5z"/><path id="Fill_47" class="st1" d="M146 208.5L134.5 220 123 208.5l11.5-11.5 11.5 11.5z"/><path id="Fill_48" class="st1" d="M93 234.5l11.5 11.5 11.5-11.5-11.5-11.5L93 234.5z"/></g></svg>