<svg xmlns="http://www.w3.org/2000/svg" viewBox="0 0 196 196" preserveAspectRatio="none"><defs><style>.cls-2{fill:#2f312b}</style></defs><g id="triangles" opacity=".069"><path id="Fill_1" data-name="Fill 1" class="cls-2" d="M0 0v28L28 0z" transform="translate(0 168)"/><path id="Fill_2" data-name="Fill 2" class="cls-2" d="M28 0H0v28z" transform="translate(42 126)"/><path id="Fill_3" data-name="Fill 3" class="cls-2" d="M28 0H0v28z" transform="translate(84 84)"/><path id="Fill_4" data-name="Fill 4" class="cls-2" d="M28 0H0v28z" transform="translate(126 42)"/><path id="Fill_5" data-name="Fill 5" class="cls-2" d="M0 0v28L28 0z" transform="translate(168)"/><path id="Fill_6" data-name="Fill 6" class="cls-2" d="M0 0v28L28 0z" transform="translate(0 126)"/><path id="Fill_7" data-name="Fill 7" class="cls-2" d="M28 0H0v28z" transform="translate(42 84)"/><path id="Fill_8" data-name="Fill 8" class="cls-2" d="M28 0H0v28z" transform="translate(84 42)"/><path id="Fill_9" data-name="Fill 9" class="cls-2" d="M0 0v28L28 0z" transform="translate(126)"/><path id="Fill_10" data-name="Fill 10" class="cls-2" d="M0 0v28L28 0z" transform="translate(0 84)"/><path id="Fill_11" data-name="Fill 11" class="cls-2" d="M28 0H0v28z" transform="translate(42 42)"/><path id="Fill_12" data-name="Fill 12" class="cls-2" d="M0 0v28L28 0z" transform="translate(84)"/><path id="Fill_13" data-name="Fill 13" class="cls-2" d="M0 0v28L28 0z" transform="translate(0 42)"/><path id="Fill_14" data-name="Fill 14" class="cls-2" d="M0 0v28L28 0z" transform="translate(42)"/><path id="Fill_15" data-name="Fill 15" class="cls-2" d="M0 0v28L28 0z"/></g></svg>